<svg width="48" height="48" xmlns="http://www.w3.org/2000/svg">
  <line stroke="#000000" fill="none" y1="46" stroke-linecap="square" stroke-width="2" stroke-miterlimit="10" x1="24" y2="41" x2="24"></line>
  <path d="M35,15c0,9-6,14-11,14S13,24,13,15" fill="none" stroke="#000000" stroke-linecap="square" stroke-miterlimit="10" stroke-width="2"></path>
  <line stroke="#000000" fill="none" y1="15" stroke-linecap="square" data-color="color-2" stroke-width="2" stroke-miterlimit="10" x1="10" y2="15" x2="38"></line>
  <path d="M12,15V14a12,12,0,0,1,24,0v1" fill="none" stroke="#000000" stroke-linecap="square" stroke-miterlimit="10" stroke-width="2" data-color="color-2"></path>
  <polyline points="24 5 24 2 24 3" fill="none" stroke="#000000" stroke-linecap="square" stroke-miterlimit="10" stroke-width="2" data-color="color-2"></polyline>
  <circle r="2" stroke="#000000" fill="none" stroke-linecap="square" data-color="color-2" stroke-width="2" cx="24" cy="13" stroke-miterlimit="10"></circle>
  <path d="M42.405,37.427,30,32a10,10,0,0,1-12,0L5.6,37.427A6,6,0,0,0,2,42.924V46H46V42.924A6,6,0,0,0,42.405,37.427Z" fill="none" stroke="#000000" stroke-linecap="square" stroke-miterlimit="10" stroke-width="2"></path>
  <line stroke="#000000" fill="none" y1="32" data-cap="butt" stroke-width="2" stroke-miterlimit="10" x1="18" y2="26.689" x2="18"></line>
  <line stroke="#000000" fill="none" y1="32" data-cap="butt" stroke-width="2" stroke-miterlimit="10" x1="30" y2="26.689" x2="30"></line>
</svg>